<?xml version="1.0" encoding="utf-8"?>
<!-- Generator: Adobe Illustrator 16.0.0, SVG Export Plug-In . SVG Version: 6.00 Build 0)  -->
<!DOCTYPE svg PUBLIC "-//W3C//DTD SVG 1.1//EN" "http://www.w3.org/Graphics/SVG/1.1/DTD/svg11.dtd">
<svg version="1.1" id="Layer_1" xmlns="http://www.w3.org/2000/svg" xmlns:xlink="http://www.w3.org/1999/xlink" x="0px" y="0px"
	 width="70px" height="60px" viewBox="0 0 70 60" enable-background="new 0 0 70 60" xml:space="preserve">
<g>
	<path fill-rule="evenodd" clip-rule="evenodd" fill="#ED1C24" d="M39.434,1c0,0,2.311,1.349,3.411,1.881
		c1.104,0.534,2.258,1.105,2.739,1.298c0.479,0.197,0.853,0.641,1.243,0.888c0.391,0.248,0.87,0.767,1.794,1.033
		c0.926,0.264,1.777,0.318,2.612,0.798c0.836,0.479,0.816,0.517,1.227,0.958c0.902,0.981,1.785,2.096,2.381,3.29
		c0.285,0.568,0.622,1.277,1.315,3.2c0.694,1.918,1.279,3.375,1.476,3.943c0.196,0.569,0.622,2.418,0.978,3.216
		c0.354,0.803,1.064,1.903,1.703,2.382c0.831,0.62,2.009,1.069,2.917,0.413c0.318-0.229,1.084-1.159,1.636-2.065
		c0.845-1.389,1.551-2.988,3.465-2.862c0.267,0.019,1.41,0.181,1.41,0.181c0.763,0.716-0.384,0.743-0.513,1.287
		c-0.134,0.55-0.025,0.856-0.38,0.774c0,0-0.287-0.713-0.679-0.677c-0.39,0.037-0.745,0.091-1.029,0.622
		c-0.285,0.535-1.103,3.109-2.062,4.106s-1.735,1.667-3.264,1.667c-1.529,0-2.976-0.831-3.97-1.72s-2.311-2.47-2.701-3.055
		c-0.391-0.587-0.657-1.12-1.013-1.619c-0.355-0.497-1.022-0.744-1.022-0.744c-0.235,2.164,0.823,5.019,2.516,6.29
		c0.783,0.586,1.723,1.208,1.723,1.208s-0.869,0.037-1.989-0.603c-1.12-0.641-2.543-1.992-3.111-3.379
		c-0.568-1.388-0.959-3.341-0.979-3.464c-0.018-0.125-0.051-0.267-0.051-0.267c-1.388-0.352-2.753,0.103-4.394-0.573
		c-0.431-0.179-0.939-0.866-1.169-1.042c-0.231-0.178-0.319-0.394-0.729-0.109c-0.41,0.286-1.013,1.227-1.226,3.023
		c-0.215,1.794-0.072,3.251,0.568,4.213c0.64,0.958,1.526,1.489,2.702,2.361c1.17,0.871,1.136,0.765,1.846,1.474
		c0.712,0.71,1.404,1.289,1.385,2.89c-0.017,1.6-0.654,2.529-0.726,3.102c-0.071,0.567-0.071,1.368-0.071,1.705
		c0,0.339-0.07,0.871-0.853,0.979c-0.782,0.105-1.867-0.214-2.454-0.677c-0.587-0.461-1.048-0.816-1.226-1.084
		c-0.179-0.265-0.319-0.694,0.054-1.262c0.479-0.729,1.993-1.625,1.472-2.702c-0.229-0.479-0.743-0.779-1.794-1.155
		c-1.834-0.65-3.467-0.784-5.383-0.94c-0.657-0.054-1.139-0.033-1.582-0.623c-0.332-0.438-0.706-1.267-1.013-1.83
		c1.595-3.923,3.672-4.837,3.672-4.837c-3.794,1.085-5.094,6.685-5.627,8.056c-0.531,1.365-1.367,3.054-1.688,3.73
		c-0.318,0.675-0.533,2.059-0.604,2.72c-0.07,0.654,1.199,1.225,1.003,1.704c-0.195,0.48-0.267,0.642-1.103,0.768
		c-0.835,0.121-1.776,0.121-2.417,0.087c-0.64-0.038-1.28,0-1.688-0.248c-0.41-0.252-0.479-0.64-0.319-1.229
		c0.158-0.586-0.86-0.831-0.363-1.529c0.498-0.689,1.226-2.218,1.724-3.923c0.498-1.71,0.825-3.945,0.857-4.96
		c0.024-0.808-0.044-1.517-0.044-1.517c-0.367-0.495-1.133-1.156-0.474-3.411C28.36,24.099,29,26.293,28.76,26.404
		c-1.094,0.545-2.327,0.507-3.474,0.826c-0.764,0.215-1.101,0.25-1.35,0.729c-0.249,0.479-0.585,1.67-0.871,2.397
		c-0.284,0.729-1.154,2.399-1.439,3.27c-0.285,0.871-0.303,1.493-0.177,2.367c0.124,0.869,0.908,1.169,0.889,1.58
		c-0.018,0.408-0.071,0.745-0.748,0.89c-0.674,0.141-2.645,0.257-3.159,0.131c-0.52-0.123-1.682-0.327-1.813-0.976
		c-0.055-0.269,0.036-0.48,0.265-0.855c0.233-0.37,0.156-1.02,0.174-1.377c0.019-0.354,0.393-0.729,0.64-1.225
		c0.533-1.067,0.592-2.783-0.351-3.668c1.555-2.726,4.987-4.975,5.746-5.271c-2.768,0.042-5.615,3.818-6.856,4.71
		c-0.524,0.375-1.688,0.995-2.786,1.457c-1.527,0.641-4.531,1.938-5.384,2.469c-0.854,0.535-2.346,1.141-3.109,2.274
		c-0.764,1.138-0.977,1.177-1.333,1.191C3.268,37.342,2.577,37.04,1.935,36.4c-0.639-0.641-1.172-1.298-1.351-1.937
		c-0.177-0.642-0.141-0.905,0.267-1.209c0.407-0.303,0.782-0.568,1.137-1.011c0.355-0.447,0.534-0.855,0.783-0.91
		c0.248-0.053,0.515-0.053,1.029-0.106c0.516-0.054,1.56-0.425,3.036-1.118c2.387-1.123,3.488-3.077,3.54-5.671
		c0.01-0.457-0.115-1.737-0.202-2.774c-0.008-0.119-0.019-0.236-0.027-0.354c0.979-0.324,2.013-0.859,2.481-2.16
		c-0.937,0.91-1.653,1.235-2.564,1.346c-0.611,0.06-1.372-0.101-1.725-0.419c-0.297-0.271-0.281-0.672,0.206-0.521
		c0.264,0.085,0.618,0.241,0.972,0.214c0.202-0.018,0.4-0.051,0.591-0.107c-0.003-0.298-0.019-0.751-0.027-0.909
		c-0.045-0.87-0.194-0.845-0.7-0.923c-0.542-0.081-1.657-0.455-2.267-1.026c-1.232-1.154-1.715-2.921-0.387-4.202
		c1.383-1.333,3.347-1.253,4.742-0.343c0.244-0.902,0.74-1.793,1.094-2.269c0.675-0.907,1.493-1.724,3.448-2.772
		c1.954-1.048,3.643-1.529,5.634-1.529c1.99,0,3.056,0.321,3.874,0.463c0.817,0.142,2.86,0.286,4.158,0.353
		c1.298,0.074,4.71,0.074,4.71,0.074s0.355-1.212,1.35-2.594c0.996-1.388,1.956-2.028,2.399-2.312C38.581,1.39,39.434,1,39.434,1
		L39.434,1z M34.396,7.759c-0.011,0.894-0.092,2.057,0.126,2.835c0.211,0.758,0.854,1.041,1.219,1.569
		c0.922,1.341,0.431,2.631,2.807,3.361c0.651,0.201,1.162,1.11,1.675,1.709c0.479,0.562,1.07,0.51,1.445,0.798
		c0.317,0.239,0.714-0.2,0.959-0.468c1.114-1.223,2.072-2.721,2.873-4.158c-0.874,0.83-1.682,2.226-2.563,3.032
		c-0.401,0.368-0.619,0.323-0.892,0.167c-0.669-0.379-1.196,0.071-2.028-1.26c-0.434-0.687-1.7-0.858-2.324-1.431
		c-0.701-0.641-0.993-1.477-1.561-2.289c-0.336-0.482-0.883-0.801-1.151-1.353C34.637,9.561,34.595,8.598,34.396,7.759L34.396,7.759
		z M53.007,13.232c-0.033-1.025-0.688-1.275-1.272-0.992C51.588,13.165,52.271,13.335,53.007,13.232L53.007,13.232z M50.535,12.106
		c0.604-0.328,1.398-0.635,2.092-0.408c0.308,0.098,0.637,0.377,0.712,0.571c0,0,0.204-0.094,0.297-0.174
		c0.092-0.083,0.104-0.169,0.027-0.271c-0.417-0.526-1.254-0.589-1.729-0.451C51.26,11.564,50.698,11.975,50.535,12.106
		L50.535,12.106z M7.249,13.853c-0.662,1.769,1.486,2.578,2.791,1.32c0.409-0.392,0.826-1.151,0.941-1.729
		C9.934,12.57,7.761,12.48,7.249,13.853z"/>
</g>
<g>
</g>
<g>
</g>
<g>
</g>
<g>
</g>
<g>
</g>
<g>
</g>
</svg>
