<?xml version="1.0" encoding="UTF-8" standalone="no"?>
<!-- Generator: Adobe Illustrator 16.0.0, SVG Export Plug-In . SVG Version: 6.00 Build 0)  -->

<svg
   version="1.1"
   id="Layer_1"
   x="0px"
   y="0px"
   width="70px"
   height="60px"
   viewBox="0 0 70 60"
   enable-background="new 0 0 70 60"
   xml:space="preserve"
   sodipodi:docname="logo_hil.svg"
   inkscape:version="1.4.3 (0d15f75, 2025-12-25)"
   inkscape:export-filename="logo_hil.png"
   inkscape:export-xdpi="96"
   inkscape:export-ydpi="96"
   xmlns:inkscape="http://www.inkscape.org/namespaces/inkscape"
   xmlns:sodipodi="http://sodipodi.sourceforge.net/DTD/sodipodi-0.dtd"
   xmlns="http://www.w3.org/2000/svg"
   xmlns:svg="http://www.w3.org/2000/svg"
   xmlns:rdf="http://www.w3.org/1999/02/22-rdf-syntax-ns#"
   xmlns:cc="http://creativecommons.org/ns#"
   xmlns:dc="http://purl.org/dc/elements/1.1/"><metadata
   id="metadata23"><rdf:RDF><cc:Work
       rdf:about=""><dc:format>image/svg+xml</dc:format><dc:type
         rdf:resource="http://purl.org/dc/dcmitype/StillImage" /></cc:Work></rdf:RDF></metadata><defs
   id="defs21" /><sodipodi:namedview
   pagecolor="#ffffff"
   bordercolor="#666666"
   borderopacity="1"
   objecttolerance="10"
   gridtolerance="10"
   guidetolerance="10"
   inkscape:pageopacity="0"
   inkscape:pageshadow="2"
   inkscape:window-width="1920"
   inkscape:window-height="1009"
   id="namedview19"
   showgrid="false"
   inkscape:zoom="8"
   inkscape:cx="23.0625"
   inkscape:cy="27.3125"
   inkscape:window-x="3832"
   inkscape:window-y="-8"
   inkscape:window-maximized="1"
   inkscape:current-layer="Layer_1"
   inkscape:showpageshadow="2"
   inkscape:pagecheckerboard="0"
   inkscape:deskcolor="#d1d1d1" /><g
   id="g4"
   transform="translate(0,9.75)"><path
     fill-rule="evenodd"
     clip-rule="evenodd"
     fill="#ed1c24"
     d="m 39.434,1 c 0,0 2.311,1.349 3.411,1.881 1.104,0.534 2.258,1.105 2.739,1.298 0.479,0.197 0.853,0.641 1.243,0.888 0.391,0.248 0.87,0.767 1.794,1.033 0.926,0.264 1.777,0.318 2.612,0.798 0.836,0.479 0.816,0.517 1.227,0.958 0.902,0.981 1.785,2.096 2.381,3.29 0.285,0.568 0.622,1.277 1.315,3.2 0.694,1.918 1.279,3.375 1.476,3.943 0.196,0.569 0.622,2.418 0.978,3.216 0.354,0.803 1.064,1.903 1.703,2.382 0.831,0.62 2.009,1.069 2.917,0.413 0.318,-0.229 1.084,-1.159 1.636,-2.065 0.845,-1.389 1.551,-2.988 3.465,-2.862 0.267,0.019 1.41,0.181 1.41,0.181 0.763,0.716 -0.384,0.743 -0.513,1.287 -0.134,0.55 -0.025,0.856 -0.38,0.774 0,0 -0.287,-0.713 -0.679,-0.677 -0.39,0.037 -0.745,0.091 -1.029,0.622 -0.285,0.535 -1.103,3.109 -2.062,4.106 -0.959,0.997 -1.735,1.667 -3.264,1.667 -1.529,0 -2.976,-0.831 -3.97,-1.72 -0.994,-0.889 -2.311,-2.47 -2.701,-3.055 -0.391,-0.587 -0.657,-1.12 -1.013,-1.619 -0.355,-0.497 -1.022,-0.744 -1.022,-0.744 -0.235,2.164 0.823,5.019 2.516,6.29 0.783,0.586 1.723,1.208 1.723,1.208 0,0 -0.869,0.037 -1.989,-0.603 -1.12,-0.641 -2.543,-1.992 -3.111,-3.379 -0.568,-1.388 -0.959,-3.341 -0.979,-3.464 -0.018,-0.125 -0.051,-0.267 -0.051,-0.267 -1.388,-0.352 -2.753,0.103 -4.394,-0.573 -0.431,-0.179 -0.939,-0.866 -1.169,-1.042 -0.231,-0.178 -0.319,-0.394 -0.729,-0.109 -0.41,0.286 -1.013,1.227 -1.226,3.023 -0.215,1.794 -0.072,3.251 0.568,4.213 0.64,0.958 1.526,1.489 2.702,2.361 1.17,0.871 1.136,0.765 1.846,1.474 0.712,0.71 1.404,1.289 1.385,2.89 -0.017,1.6 -0.654,2.529 -0.726,3.102 -0.071,0.567 -0.071,1.368 -0.071,1.705 0,0.339 -0.07,0.871 -0.853,0.979 -0.782,0.105 -1.867,-0.214 -2.454,-0.677 -0.587,-0.461 -1.048,-0.816 -1.226,-1.084 -0.179,-0.265 -0.319,-0.694 0.054,-1.262 0.479,-0.729 1.993,-1.625 1.472,-2.702 -0.229,-0.479 -0.743,-0.779 -1.794,-1.155 -1.834,-0.65 -3.467,-0.784 -5.383,-0.94 -0.657,-0.054 -1.139,-0.033 -1.582,-0.623 -0.332,-0.438 -0.706,-1.267 -1.013,-1.83 1.595,-3.923 3.672,-4.837 3.672,-4.837 -3.794,1.085 -5.094,6.685 -5.627,8.056 -0.531,1.365 -1.367,3.054 -1.688,3.73 -0.318,0.675 -0.533,2.059 -0.604,2.72 -0.07,0.654 1.199,1.225 1.003,1.704 -0.195,0.48 -0.267,0.642 -1.103,0.768 -0.835,0.121 -1.776,0.121 -2.417,0.087 -0.64,-0.038 -1.28,0 -1.688,-0.248 -0.41,-0.252 -0.479,-0.64 -0.319,-1.229 0.158,-0.586 -0.86,-0.831 -0.363,-1.529 0.498,-0.689 1.226,-2.218 1.724,-3.923 0.498,-1.71 0.825,-3.945 0.857,-4.96 0.024,-0.808 -0.044,-1.517 -0.044,-1.517 -0.367,-0.495 -1.133,-1.156 -0.474,-3.411 -1.193,0.958 -0.553,3.152 -0.793,3.263 -1.094,0.545 -2.327,0.507 -3.474,0.826 -0.764,0.215 -1.101,0.25 -1.35,0.729 -0.249,0.479 -0.585,1.67 -0.871,2.397 -0.284,0.729 -1.154,2.399 -1.439,3.27 -0.285,0.871 -0.303,1.493 -0.177,2.367 0.124,0.869 0.908,1.169 0.889,1.58 -0.018,0.408 -0.071,0.745 -0.748,0.89 -0.674,0.141 -2.645,0.257 -3.159,0.131 -0.52,-0.123 -1.682,-0.327 -1.813,-0.976 -0.055,-0.269 0.036,-0.48 0.265,-0.855 0.233,-0.37 0.156,-1.02 0.174,-1.377 0.019,-0.354 0.393,-0.729 0.64,-1.225 0.533,-1.067 0.592,-2.783 -0.351,-3.668 1.555,-2.726 4.987,-4.975 5.746,-5.271 -2.768,0.042 -5.615,3.818 -6.856,4.71 -0.524,0.375 -1.688,0.995 -2.786,1.457 C 11.923,32.03 8.919,33.327 8.066,33.858 7.212,34.393 5.72,34.999 4.957,36.132 4.193,37.27 3.98,37.309 3.624,37.323 3.268,37.342 2.577,37.04 1.935,36.4 1.296,35.759 0.763,35.102 0.584,34.463 0.407,33.821 0.443,33.558 0.851,33.254 1.258,32.951 1.633,32.686 1.988,32.243 2.343,31.796 2.522,31.388 2.771,31.333 3.019,31.28 3.286,31.28 3.8,31.227 c 0.516,-0.054 1.56,-0.425 3.036,-1.118 2.387,-1.123 3.488,-3.077 3.54,-5.671 0.01,-0.457 -0.115,-1.737 -0.202,-2.774 -0.008,-0.119 -0.019,-0.236 -0.027,-0.354 0.979,-0.324 2.013,-0.859 2.481,-2.16 -0.937,0.91 -1.653,1.235 -2.564,1.346 -0.611,0.06 -1.372,-0.101 -1.725,-0.419 -0.297,-0.271 -0.281,-0.672 0.206,-0.521 0.264,0.085 0.618,0.241 0.972,0.214 0.202,-0.018 0.4,-0.051 0.591,-0.107 -0.003,-0.298 -0.019,-0.751 -0.027,-0.909 -0.045,-0.87 -0.194,-0.845 -0.7,-0.923 C 8.839,17.75 7.724,17.376 7.114,16.805 5.882,15.651 5.399,13.884 6.727,12.603 8.11,11.27 10.074,11.35 11.469,12.26 c 0.244,-0.902 0.74,-1.793 1.094,-2.269 0.675,-0.907 1.493,-1.724 3.448,-2.772 1.954,-1.048 3.643,-1.529 5.634,-1.529 1.99,0 3.056,0.321 3.874,0.463 0.817,0.142 2.86,0.286 4.158,0.353 1.298,0.074 4.71,0.074 4.71,0.074 0,0 0.355,-1.212 1.35,-2.594 C 36.733,2.598 37.693,1.958 38.136,1.674 38.581,1.39 39.434,1 39.434,1 Z m -5.038,6.759 c -0.011,0.894 -0.092,2.057 0.126,2.835 0.211,0.758 0.854,1.041 1.219,1.569 0.922,1.341 0.431,2.631 2.807,3.361 0.651,0.201 1.162,1.11 1.675,1.709 0.479,0.562 1.07,0.51 1.445,0.798 0.317,0.239 0.714,-0.2 0.959,-0.468 1.114,-1.223 2.072,-2.721 2.873,-4.158 -0.874,0.83 -1.682,2.226 -2.563,3.032 -0.401,0.368 -0.619,0.323 -0.892,0.167 -0.669,-0.379 -1.196,0.071 -2.028,-1.26 -0.434,-0.687 -1.7,-0.858 -2.324,-1.431 C 36.992,13.272 36.7,12.436 36.132,11.624 35.796,11.142 35.249,10.823 34.981,10.271 34.637,9.561 34.595,8.598 34.396,7.759 Z m 18.611,5.473 c -0.033,-1.025 -0.688,-1.275 -1.272,-0.992 -0.147,0.925 0.536,1.095 1.272,0.992 z m -2.472,-1.126 c 0.604,-0.328 1.398,-0.635 2.092,-0.408 0.308,0.098 0.637,0.377 0.712,0.571 0,0 0.204,-0.094 0.297,-0.174 0.092,-0.083 0.104,-0.169 0.027,-0.271 -0.417,-0.526 -1.254,-0.589 -1.729,-0.451 -0.674,0.191 -1.236,0.602 -1.399,0.733 z M 7.249,13.853 c -0.662,1.769 1.486,2.578 2.791,1.32 0.409,-0.392 0.826,-1.151 0.941,-1.729 C 9.934,12.57 7.761,12.48 7.249,13.853 Z"
     id="path2" /></g><g
   id="g6" /><g
   id="g8" /><g
   id="g10" /><g
   id="g12" /><g
   id="g14" /><g
   id="g16" /><text
   xml:space="preserve"
   style="font-style:normal;font-weight:normal;font-size:40px;line-height:1.25;font-family:sans-serif;letter-spacing:0px;word-spacing:0px;fill:#000000;fill-opacity:1;stroke:none"
   x="38"
   y="22.5"
   id="text3716" />

</svg>
