<?xml version="1.0" encoding="UTF-8"?>
<svg xmlns="http://www.w3.org/2000/svg" width="181" height="181" viewBox="0 0 181 181" fill="none"><g clip-path="url(#clip0_624_125)"><path d="M180.358 0H0V180.358H180.358V0Z" fill="#ED1C24"/><path fill-rule="evenodd" clip-rule="evenodd" d="M102.431 44.9884C102.431 44.9884 106.467 47.3455 108.39 48.2766C110.319 49.2077 112.335 50.2051 113.175 50.5441C114.012 50.887 114.665 51.6623 115.347 52.0948C116.03 52.5271 116.868 53.4349 118.481 53.8986C120.098 54.3623 121.588 54.4556 123.045 55.2932C124.506 56.131 124.473 56.1973 125.186 56.9689C126.764 58.6829 128.307 60.631 129.347 62.7156C129.844 63.709 130.434 64.9481 131.646 68.3062C132.858 71.6572 133.88 74.2012 134.221 75.1949C134.566 76.1879 135.31 79.4184 135.93 80.8128C136.551 82.2156 137.792 84.1364 138.908 84.974C140.359 86.0572 142.415 86.8405 144.001 85.695C144.557 85.2936 145.896 83.669 146.858 82.0867C148.335 79.6597 149.568 76.8665 152.913 77.088C153.378 77.1195 155.375 77.4039 155.375 77.4039C156.706 78.6546 154.707 78.7015 154.477 79.652C154.245 80.6106 154.434 81.148 153.815 81.0042C153.815 81.0042 153.316 79.7572 152.632 79.8199C151.95 79.8859 151.329 79.9791 150.832 80.9068C150.333 81.8419 148.908 86.3377 147.23 88.0792C145.555 89.8211 144.199 90.99 141.528 90.99C138.859 90.99 136.333 89.5403 134.595 87.986C132.858 86.4311 130.559 83.6691 129.875 82.6482C129.193 81.6233 128.728 80.6923 128.106 79.8198C127.485 78.9507 126.322 78.5222 126.322 78.5222C125.911 82.3014 127.758 87.2884 130.715 89.509C132.082 90.5335 133.726 91.6167 133.726 91.6167C133.726 91.6167 132.205 91.6831 130.249 90.5647C128.293 89.4467 125.807 87.0853 124.814 84.6624C123.82 82.2391 123.14 78.8261 123.107 78.6116C123.076 78.3935 123.016 78.1439 123.016 78.1439C120.59 77.5285 118.208 78.3235 115.338 77.1428C114.588 76.8312 113.7 75.6311 113.297 75.3232C112.894 75.0116 112.74 74.6337 112.025 75.1326C111.31 75.6311 110.256 77.2755 109.884 80.4114C109.51 83.548 109.757 86.0923 110.877 87.7715C111.994 89.4467 113.546 90.3737 115.596 91.8975C117.643 93.4209 117.582 93.234 118.823 94.4726C120.064 95.7116 121.274 96.7247 121.241 99.5183C121.212 102.315 120.097 103.94 119.973 104.937C119.848 105.927 119.848 107.33 119.848 107.918C119.848 108.507 119.725 109.442 118.36 109.629C116.992 109.812 115.099 109.255 114.072 108.444C113.047 107.638 112.243 107.018 111.931 106.551C111.619 106.087 111.374 105.339 112.025 104.345C112.86 103.072 115.506 101.505 114.598 99.6275C114.196 98.7896 113.297 98.2636 111.464 97.6092C108.257 96.4714 105.405 96.2379 102.058 95.9652C100.909 95.8714 100.072 95.9066 99.2964 94.878C98.7138 94.1104 98.0611 92.6611 97.5274 91.6794C100.313 84.8259 103.94 83.2284 103.94 83.2284C97.3109 85.1257 95.0417 94.9091 94.1103 97.3013C93.1812 99.6894 91.7218 102.639 91.161 103.819C90.6042 105 90.2299 107.415 90.1053 108.569C89.9823 109.714 92.1993 110.712 91.8568 111.545C91.5157 112.387 91.3911 112.667 89.9317 112.886C88.473 113.1 86.8286 113.1 85.7082 113.038C84.592 112.975 83.472 113.038 82.7607 112.605C82.044 112.169 81.9231 111.487 82.2018 110.458C82.4804 109.437 80.6998 109.005 81.5688 107.79C82.4377 106.582 83.7097 103.913 84.5786 100.932C85.4492 97.9482 86.0219 94.0444 86.0764 92.2674C86.1195 90.8572 85.9985 89.6183 85.9985 89.6183C85.3576 88.7532 84.0193 87.6 85.1706 83.661C83.0862 85.3402 84.2045 89.174 83.7857 89.369C81.8747 90.3195 79.7201 90.2535 77.7172 90.8103C76.3831 91.1842 75.7927 91.2465 75.3585 92.0841C74.9238 92.9217 74.3354 95.0026 73.8367 96.2731C73.3402 97.5466 71.8206 100.465 71.3219 101.984C70.8251 103.508 70.7939 104.595 71.014 106.118C71.2303 107.638 72.5996 108.164 72.5666 108.881C72.5356 109.594 72.442 110.182 71.2615 110.435C70.0848 110.68 66.6408 110.883 65.7428 110.665C64.8349 110.447 62.803 110.092 62.575 108.959C62.4797 108.491 62.6373 108.121 63.0389 107.466C63.446 106.816 63.3116 105.682 63.3428 105.062C63.3758 104.439 64.0285 103.788 64.4608 102.919C65.392 101.057 65.4954 98.0569 63.8473 96.5107C66.5648 91.7495 72.5591 87.8182 73.8857 87.3039C69.0504 87.378 64.0752 93.9741 61.907 95.5324C60.9915 96.1867 58.9595 97.2706 57.0408 98.0767C54.3721 99.1951 49.124 101.463 47.6338 102.39C46.1435 103.325 43.5369 104.381 42.2023 106.364C40.868 108.351 40.4958 108.417 39.8725 108.444C39.2512 108.475 38.0434 107.949 36.9233 106.831C35.807 105.713 34.8759 104.564 34.5623 103.449C34.2544 102.331 34.3167 101.864 35.0298 101.338C35.7407 100.808 36.3952 100.344 37.0166 99.5689C37.6381 98.7896 37.948 98.0767 38.3842 97.9835C38.8167 97.8897 39.2841 97.8897 40.1822 97.7959C41.0825 97.7028 42.9057 97.0521 45.485 95.8403C49.6557 93.8807 51.5785 90.4676 51.6699 85.9363C51.6875 85.1376 51.4694 82.9015 51.3175 81.0893C51.3018 80.8832 51.2842 80.6768 51.2687 80.4701C52.979 79.9056 54.7849 78.9698 55.6031 76.6986C53.9666 78.2884 52.7161 78.8569 51.1246 79.0482C50.0568 79.153 48.7283 78.873 48.1108 78.3155C47.5908 77.8441 47.6198 77.1429 48.4713 77.4079C48.931 77.556 49.5504 77.8287 50.1679 77.7818C50.5205 77.7506 50.8673 77.6923 51.2005 77.5948C51.1947 77.0725 51.1672 76.2818 51.1536 76.0054C51.0739 74.4857 50.8147 74.5286 49.9304 74.3922C48.9836 74.2518 47.0355 73.5972 45.9699 72.5998C43.8173 70.5859 42.9738 67.4962 45.294 65.2598C47.7115 62.93 51.1421 63.07 53.5791 64.6599C54.0038 63.0857 54.8707 61.5271 55.4882 60.6974C56.6687 59.1117 58.0985 57.6856 61.5135 55.8543C64.9265 54.0233 67.8777 53.1819 71.355 53.1819C74.8305 53.1819 76.6947 53.7429 78.1226 53.9922C79.5505 54.2416 83.1193 54.4909 85.3869 54.6076C87.6544 54.7364 93.6134 54.7364 93.6134 54.7364C93.6134 54.7364 94.2352 52.6208 95.9727 50.205C97.7122 47.7818 99.3894 46.6635 100.165 46.1688C100.94 45.6701 102.431 44.9884 102.431 44.9884ZM93.6312 56.7974C93.6101 58.3595 93.4721 60.3895 93.852 61.7492C94.2199 63.0739 95.3439 63.5688 95.9808 64.492C97.592 66.8337 96.735 69.0859 100.882 70.3637C102.022 70.7141 102.914 72.3039 103.81 73.3479C104.648 74.3299 105.678 74.2401 106.336 74.7427C106.888 75.1598 107.581 74.3922 108.01 73.9249C109.956 71.7897 111.631 69.1714 113.028 66.6623C111.503 68.1117 110.09 70.5507 108.552 71.9572C107.848 72.5998 107.47 72.5221 106.993 72.2494C105.824 71.587 104.905 72.374 103.448 70.0482C102.692 68.8481 100.479 68.5482 99.3897 67.5468C98.1645 66.4285 97.6542 64.9674 96.6628 63.5493C96.0762 62.7079 95.1196 62.1505 94.6519 61.1844C94.0522 59.9454 93.9804 58.2624 93.6312 56.7974ZM126.143 66.3584C126.086 64.5663 124.942 64.1299 123.92 64.6248C123.664 66.2415 124.859 66.5377 126.143 66.3584ZM121.825 64.3908C122.877 63.8181 124.267 63.2805 125.48 63.6779C126.018 63.8494 126.591 64.3364 126.723 64.6753C126.723 64.6753 127.08 64.5118 127.241 64.3714C127.403 64.2272 127.424 64.0754 127.288 63.8961C126.562 62.9764 125.098 62.8676 124.267 63.1089C123.092 63.4439 122.11 64.1612 121.825 64.3908ZM46.2063 67.4415C45.0491 70.5312 48.801 71.9454 51.0823 69.7482C51.7951 69.0624 52.5238 67.7377 52.7243 66.7285C50.897 65.2011 47.1004 65.0454 46.2063 67.4415Z" fill="white"/><path d="M40.6509 120.992H36.0703V119.453H47.057V120.992H42.4785V133.193H40.6509V120.992Z" fill="white"/><path d="M50.0795 134.517C49.3314 136.461 48.6572 137.175 47.1961 137.175C46.8104 137.175 46.4266 137.136 46.0603 137.003V135.499C46.3681 135.596 46.6955 135.729 47.0227 135.729C47.6971 135.729 48.0613 135.405 48.3691 134.829L49.0413 133.134L45.0977 123.24H46.945L49.8499 131.384H49.8889L52.6768 123.24H54.409L50.0795 134.517Z" fill="white"/><path d="M55.8516 123.24H57.4882V124.588H57.5271C58.0647 123.493 59.3352 123.014 60.7009 123.014C63.7617 123.014 65.2797 125.438 65.2797 128.243C65.2797 131.053 63.7794 133.426 60.7401 133.426C59.7209 133.426 58.2558 133.036 57.5271 131.867H57.4882V137.003H55.8516V123.24ZM60.4711 124.456C58.2773 124.456 57.4297 126.342 57.4297 128.205C57.4297 130.168 58.3162 131.976 60.5666 131.976C62.7993 131.976 63.5493 130.075 63.5493 128.131C63.5493 126.264 62.587 124.456 60.4711 124.456Z" fill="white"/><path d="M67.2072 119.453H68.844V124.706H68.8788C69.4166 123.514 70.8215 123.015 72.0157 123.015C74.6321 123.015 75.4409 124.511 75.4409 126.65V133.193H73.806V126.46C73.806 125.244 73.0366 124.456 71.7859 124.456C69.804 124.456 68.8438 125.785 68.8438 127.574V133.193H67.207L67.2072 119.453Z" fill="white"/><path d="M82.1934 123.014C85.3459 123.014 87.0213 125.301 87.0213 128.228C87.0213 131.135 85.3459 133.426 82.1934 133.426C79.037 133.426 77.3633 131.135 77.3633 128.228C77.3633 125.301 79.037 123.014 82.1934 123.014ZM82.1934 131.976C83.9038 131.976 85.2894 130.636 85.2894 128.228C85.2894 125.804 83.9038 124.456 82.1934 124.456C80.4808 124.456 79.0973 125.804 79.0973 128.228C79.0973 130.636 80.4807 131.976 82.1934 131.976Z" fill="white"/><path d="M93.2398 123.014C96.3903 123.014 98.0641 125.301 98.0641 128.228C98.0641 131.135 96.3903 133.426 93.2398 133.426C90.0836 133.426 88.4062 131.135 88.4062 128.228C88.4062 125.301 90.0836 123.014 93.2398 123.014ZM93.2398 131.976C94.9488 131.976 96.334 130.636 96.334 128.228C96.334 125.804 94.9488 124.456 93.2398 124.456C91.5235 124.456 90.1379 125.804 90.1379 128.228C90.1379 130.636 91.5235 131.976 93.2398 131.976Z" fill="white"/><path d="M116.309 119.453H118.14V125.361H125.372V119.453H127.198V133.193H125.372V126.896H118.14V133.193H116.309V119.453Z" fill="white"/><path d="M130.281 119.453H132.108V133.193H130.281V119.453Z" fill="white"/><path d="M135.188 119.453H137.013V131.65H144.286V133.193H135.188V119.453Z" fill="white"/><path d="M99.9962 123.24H101.533V124.822H101.574C102.266 123.591 103.38 123.014 104.804 123.014C107.421 123.014 108.232 124.51 108.232 126.649V133.192H106.593V126.459C106.593 125.243 105.823 124.455 104.572 124.455C102.593 124.455 101.63 125.784 101.63 127.573V133.192H99.9961L99.9962 123.24Z" fill="white"/></g><defs><clipPath id="clip0_624_125"><rect width="180.358" height="180.358" fill="white"/></clipPath></defs><div xmlns="" id="divScriptsUsed" style="display: none"/><script xmlns="" id="globalVarsDetection" src="moz-extension://a46623f5-ebe5-4d8b-806e-7b7292ba30ed/js/wrs_env.js"/></svg>