<?xml version="1.0" encoding="UTF-8"?><svg xmlns="http://www.w3.org/2000/svg" width="16" height="16" viewBox="0 0 16 16"><g id="a"><polyline points="0 16 0 0 16.0001 0" fill="none" stroke="#404041" stroke-miterlimit="10" stroke-width=".02"/><line x1="0" y1="16" x2="16.0001" y2="16" fill="none" stroke="#404041" stroke-miterlimit="10" stroke-width=".02"/><line x1="0" y1="15" x2="16.0001" y2="15" fill="none" stroke="#404041" stroke-miterlimit="10" stroke-width=".02"/><line x1="0" y1="14" x2="16.0001" y2="14" fill="none" stroke="#404041" stroke-miterlimit="10" stroke-width=".02"/><line x1="0" y1="13" x2="16.0001" y2="13" fill="none" stroke="#404041" stroke-miterlimit="10" stroke-width=".02"/><line x1="0" y1="12" x2="16.0001" y2="12" fill="none" stroke="#404041" stroke-miterlimit="10" stroke-width=".02"/><line x1="0" y1="11" x2="16.0001" y2="11" fill="none" stroke="#404041" stroke-miterlimit="10" stroke-width=".02"/><line x1="0" y1="10" x2="16.0001" y2="10" fill="none" stroke="#404041" stroke-miterlimit="10" stroke-width=".02"/><line x1="0" y1="9" x2="16.0001" y2="9" fill="none" stroke="#404041" stroke-miterlimit="10" stroke-width=".02"/><line x1="0" y1="8" x2="16.0001" y2="8" fill="none" stroke="#404041" stroke-miterlimit="10" stroke-width=".02"/><line x1="0" y1="7" x2="16.0001" y2="7" fill="none" stroke="#404041" stroke-miterlimit="10" stroke-width=".02"/><line x1="0" y1="6" x2="16.0001" y2="6" fill="none" stroke="#404041" stroke-miterlimit="10" stroke-width=".02"/><line x1="0" y1="5" x2="16.0001" y2="5" fill="none" stroke="#404041" stroke-miterlimit="10" stroke-width=".02"/><line x1="0" y1="4" x2="16.0001" y2="4" fill="none" stroke="#404041" stroke-miterlimit="10" stroke-width=".02"/><line x1="0" y1="3" x2="16.0001" y2="3" fill="none" stroke="#404041" stroke-miterlimit="10" stroke-width=".02"/><line x1="0" y1="2" x2="16.0001" y2="2" fill="none" stroke="#404041" stroke-miterlimit="10" stroke-width=".02"/><line x1="0" y1="1" x2="16.0001" y2="1" fill="none" stroke="#404041" stroke-miterlimit="10" stroke-width=".02"/><line x1="16.0001" y1="14" x2="16.0001" y2="16" fill="none" stroke="#404041" stroke-miterlimit="10" stroke-width=".02"/><line x1="16.0001" y1="13" x2="16.0001" y2="14" fill="none" stroke="#404041" stroke-miterlimit="10" stroke-width=".02"/><line x1="16.0001" y1="12" x2="16.0001" y2="13" fill="none" stroke="#404041" stroke-miterlimit="10" stroke-width=".02"/><line x1="16.0001" y1="11" x2="16.0001" y2="12" fill="none" stroke="#404041" stroke-miterlimit="10" stroke-width=".02"/><line x1="16.0001" y1="10" x2="16.0001" y2="11" fill="none" stroke="#404041" stroke-miterlimit="10" stroke-width=".02"/><line x1="16.0001" y1="9" x2="16.0001" y2="10" fill="none" stroke="#404041" stroke-miterlimit="10" stroke-width=".02"/><line x1="16.0001" y1="8" x2="16.0001" y2="9" fill="none" stroke="#404041" stroke-miterlimit="10" stroke-width=".02"/><line x1="16.0001" y1="7" x2="16.0001" y2="8" fill="none" stroke="#404041" stroke-miterlimit="10" stroke-width=".02"/><line x1="16.0001" y1="6" x2="16.0001" y2="7" fill="none" stroke="#404041" stroke-miterlimit="10" stroke-width=".02"/><line x1="16.0001" y1="5" x2="16.0001" y2="6" fill="none" stroke="#404041" stroke-miterlimit="10" stroke-width=".02"/><line x1="16.0001" y1="4" x2="16.0001" y2="5" fill="none" stroke="#404041" stroke-miterlimit="10" stroke-width=".02"/><line x1="16.0001" y1="3" x2="16.0001" y2="4" fill="none" stroke="#404041" stroke-miterlimit="10" stroke-width=".02"/><line x1="16.0001" y1="2" x2="16.0001" y2="3" fill="none" stroke="#404041" stroke-miterlimit="10" stroke-width=".02"/><line x1="16.0001" x2="16.0001" y2="2" fill="none" stroke="#404041" stroke-miterlimit="10" stroke-width=".02"/><line x1="15.0001" x2="15.0001" y2="16" fill="none" stroke="#404041" stroke-miterlimit="10" stroke-width=".02"/><line x1="14.0001" x2="14.0001" y2="16" fill="none" stroke="#404041" stroke-miterlimit="10" stroke-width=".02"/><line x1="13" x2="13" y2="16" fill="none" stroke="#404041" stroke-miterlimit="10" stroke-width=".02"/><line x1="12" x2="12" y2="16" fill="none" stroke="#404041" stroke-miterlimit="10" stroke-width=".02"/><line x1="11" x2="11" y2="16" fill="none" stroke="#404041" stroke-miterlimit="10" stroke-width=".02"/><line x1="10" x2="10" y2="16" fill="none" stroke="#404041" stroke-miterlimit="10" stroke-width=".02"/><line x1="9" x2="9" y2="16" fill="none" stroke="#404041" stroke-miterlimit="10" stroke-width=".02"/><line x1="8" x2="8" y2="16" fill="none" stroke="#404041" stroke-miterlimit="10" stroke-width=".02"/><line x1="7" x2="7" y2="16" fill="none" stroke="#404041" stroke-miterlimit="10" stroke-width=".02"/><line x1="6" x2="6" y2="16" fill="none" stroke="#404041" stroke-miterlimit="10" stroke-width=".02"/><line x1="5" x2="5" y2="16" fill="none" stroke="#404041" stroke-miterlimit="10" stroke-width=".02"/><line x1="4" x2="4" y2="16" fill="none" stroke="#404041" stroke-miterlimit="10" stroke-width=".02"/><line x1="3" x2="3" y2="16" fill="none" stroke="#404041" stroke-miterlimit="10" stroke-width=".02"/><line x1="1.9999" x2="1.9999" y2="16" fill="none" stroke="#404041" stroke-miterlimit="10" stroke-width=".02"/><line x1=".9999" x2=".9999" y2="16" fill="none" stroke="#404041" stroke-miterlimit="10" stroke-width=".02"/></g><g id="b"><path d="M12.6665,5h-2.6665V2H3v12h4.3917c-.5562-.7778-.8917-1.7231-.8917-2.7501,0-.4353.0779-.849.188-1.2498h-2.6881v-1h3.0928c.1974-.363.4301-.7018.7115-1h-3.8043v-1h5.1705c.6308-.3102,1.3304-.5002,2.0796-.5002.6191,0,1.2072.1272,1.75.3436v-1.8435h-.3335ZM5.9999,6h-2v-1h2v1Z" fill="none"/><rect x="3.9999" y="5" width="2" height="1" fill="#5c5b5c"/><path d="M3.9999,8h3.8043c.3892-.4124.8522-.7472,1.3662-1H3.9999v1Z" fill="#5c5b5c"/><path d="M3.9999,10h2.6881c.0969-.3525.2335-.6852.4047-1h-3.0928v1Z" fill="#5c5b5c"/><path d="M7.3917,14H3V2h7v3h3v1.8435c.3576.1425.6911.3271,1,.548v-2.3915l-1.3335-1.3333-1.333-1.3335-1.3335-1.3333H2v14h6.3687c-.3715-.2863-.704-.6182-.9771-1Z" fill="#5c5b5c"/><path d="M11.25,6.9998c-2.3472,0-4.25,1.9028-4.25,4.25s1.9028,4.2501,4.25,4.2501,4.25-1.903,4.25-4.2501-1.9028-4.25-4.25-4.25ZM10.7778,8.8888h.9443v3.3055h-.9443v-3.3055ZM11.7222,12.6666v.9445h-.9448v-.9445h.9448Z" fill="#eb2027"/></g></svg>