<?xml version="1.0" encoding="UTF-8"?><svg id="a" xmlns="http://www.w3.org/2000/svg" width="16" height="16" viewBox="0 0 16 16"><path d="M12.7578,13.509v-1.5059h3.2422v-1.9941h-8V2.5119c0-.2773.2256-.5029.5029-.5029h7.4971v-1h-7.4971c-.8286,0-1.5029.6738-1.5029,1.5029v7.9883c0,.8291.6743,1.5029,1.5029,1.5029h3.2549v1.5059h-1.7759v1h6.0181v-1h-3.2422Z" fill="#a6a8ab" stroke-width="0"/><path d="M1,12.509v2h5.5V1.009H1v11.5ZM5.5,2.009v10.5h-3.5V2.009h3.5Z" fill="#a6a8ab" stroke-width="0"/><rect x="2.5" y="5.509" width=".5" height="1" fill="#a6a8ab" stroke-width="0"/><rect x="3.5" y="5.509" width=".5" height="1" fill="#a6a8ab" stroke-width="0"/><rect x="2.4912" y="3.509" width="2.5" height="1" fill="#a6a8ab" stroke-width="0"/></svg>