<?xml version="1.0" encoding="UTF-8"?><svg xmlns="http://www.w3.org/2000/svg" width="16" height="16" viewBox="0 0 16 16"><g id="a"><polyline points="0 16 0 0 16.0001 0" fill="none" stroke="#404041" stroke-miterlimit="10" stroke-width=".02"/><line x1="0" y1="16" x2="16.0001" y2="16" fill="none" stroke="#404041" stroke-miterlimit="10" stroke-width=".02"/><line x1="0" y1="15" x2="16.0001" y2="15" fill="none" stroke="#404041" stroke-miterlimit="10" stroke-width=".02"/><line x1="0" y1="14" x2="16.0001" y2="14" fill="none" stroke="#404041" stroke-miterlimit="10" stroke-width=".02"/><line x1="0" y1="13" x2="16.0001" y2="13" fill="none" stroke="#404041" stroke-miterlimit="10" stroke-width=".02"/><line x1="0" y1="12" x2="16.0001" y2="12" fill="none" stroke="#404041" stroke-miterlimit="10" stroke-width=".02"/><line x1="0" y1="11" x2="16.0001" y2="11" fill="none" stroke="#404041" stroke-miterlimit="10" stroke-width=".02"/><line x1="0" y1="10" x2="16.0001" y2="10" fill="none" stroke="#404041" stroke-miterlimit="10" stroke-width=".02"/><line x1="0" y1="9" x2="16.0001" y2="9" fill="none" stroke="#404041" stroke-miterlimit="10" stroke-width=".02"/><line x1="0" y1="8" x2="16.0001" y2="8" fill="none" stroke="#404041" stroke-miterlimit="10" stroke-width=".02"/><line x1="0" y1="7" x2="16.0001" y2="7" fill="none" stroke="#404041" stroke-miterlimit="10" stroke-width=".02"/><line x1="0" y1="6" x2="16.0001" y2="6" fill="none" stroke="#404041" stroke-miterlimit="10" stroke-width=".02"/><line x1="0" y1="5" x2="16.0001" y2="5" fill="none" stroke="#404041" stroke-miterlimit="10" stroke-width=".02"/><line x1="0" y1="4" x2="16.0001" y2="4" fill="none" stroke="#404041" stroke-miterlimit="10" stroke-width=".02"/><line x1="0" y1="3" x2="16.0001" y2="3" fill="none" stroke="#404041" stroke-miterlimit="10" stroke-width=".02"/><line x1="0" y1="2" x2="16.0001" y2="2" fill="none" stroke="#404041" stroke-miterlimit="10" stroke-width=".02"/><line x1="0" y1="1" x2="16.0001" y2="1" fill="none" stroke="#404041" stroke-miterlimit="10" stroke-width=".02"/><line x1="16.0001" y1="14" x2="16.0001" y2="16" fill="none" stroke="#404041" stroke-miterlimit="10" stroke-width=".02"/><line x1="16.0001" y1="13" x2="16.0001" y2="14" fill="none" stroke="#404041" stroke-miterlimit="10" stroke-width=".02"/><line x1="16.0001" y1="12" x2="16.0001" y2="13" fill="none" stroke="#404041" stroke-miterlimit="10" stroke-width=".02"/><line x1="16.0001" y1="11" x2="16.0001" y2="12" fill="none" stroke="#404041" stroke-miterlimit="10" stroke-width=".02"/><line x1="16.0001" y1="10" x2="16.0001" y2="11" fill="none" stroke="#404041" stroke-miterlimit="10" stroke-width=".02"/><line x1="16.0001" y1="9" x2="16.0001" y2="10" fill="none" stroke="#404041" stroke-miterlimit="10" stroke-width=".02"/><line x1="16.0001" y1="8" x2="16.0001" y2="9" fill="none" stroke="#404041" stroke-miterlimit="10" stroke-width=".02"/><line x1="16.0001" y1="7" x2="16.0001" y2="8" fill="none" stroke="#404041" stroke-miterlimit="10" stroke-width=".02"/><line x1="16.0001" y1="6" x2="16.0001" y2="7" fill="none" stroke="#404041" stroke-miterlimit="10" stroke-width=".02"/><line x1="16.0001" y1="5" x2="16.0001" y2="6" fill="none" stroke="#404041" stroke-miterlimit="10" stroke-width=".02"/><line x1="16.0001" y1="4" x2="16.0001" y2="5" fill="none" stroke="#404041" stroke-miterlimit="10" stroke-width=".02"/><line x1="16.0001" y1="3" x2="16.0001" y2="4" fill="none" stroke="#404041" stroke-miterlimit="10" stroke-width=".02"/><line x1="16.0001" y1="2" x2="16.0001" y2="3" fill="none" stroke="#404041" stroke-miterlimit="10" stroke-width=".02"/><line x1="16.0001" x2="16.0001" y2="2" fill="none" stroke="#404041" stroke-miterlimit="10" stroke-width=".02"/><line x1="15.0001" x2="15.0001" y2="16" fill="none" stroke="#404041" stroke-miterlimit="10" stroke-width=".02"/><line x1="14.0001" x2="14.0001" y2="16" fill="none" stroke="#404041" stroke-miterlimit="10" stroke-width=".02"/><line x1="13" x2="13" y2="16" fill="none" stroke="#404041" stroke-miterlimit="10" stroke-width=".02"/><line x1="12" x2="12" y2="16" fill="none" stroke="#404041" stroke-miterlimit="10" stroke-width=".02"/><line x1="11" x2="11" y2="16" fill="none" stroke="#404041" stroke-miterlimit="10" stroke-width=".02"/><line x1="10" x2="10" y2="16" fill="none" stroke="#404041" stroke-miterlimit="10" stroke-width=".02"/><line x1="9" x2="9" y2="16" fill="none" stroke="#404041" stroke-miterlimit="10" stroke-width=".02"/><line x1="8" x2="8" y2="16" fill="none" stroke="#404041" stroke-miterlimit="10" stroke-width=".02"/><line x1="7" x2="7" y2="16" fill="none" stroke="#404041" stroke-miterlimit="10" stroke-width=".02"/><line x1="6" x2="6" y2="16" fill="none" stroke="#404041" stroke-miterlimit="10" stroke-width=".02"/><line x1="5" x2="5" y2="16" fill="none" stroke="#404041" stroke-miterlimit="10" stroke-width=".02"/><line x1="4" x2="4" y2="16" fill="none" stroke="#404041" stroke-miterlimit="10" stroke-width=".02"/><line x1="3" x2="3" y2="16" fill="none" stroke="#404041" stroke-miterlimit="10" stroke-width=".02"/><line x1="1.9999" x2="1.9999" y2="16" fill="none" stroke="#404041" stroke-miterlimit="10" stroke-width=".02"/><line x1=".9999" x2=".9999" y2="16" fill="none" stroke="#404041" stroke-miterlimit="10" stroke-width=".02"/></g><g id="b"><rect x="4" y="5" width="2" height="1" fill="#5c5b5c"/><rect x="4" y="7" width="8" height="1" fill="#5c5b5c"/><rect x="4" y="9" width="8" height="1" fill="#5c5b5c"/><path d="M12.6665,3.6667l-1.333-1.3335-1.3335-1.3333H2v14h12V5l-1.3335-1.3333ZM13,14H3V2h7v3h3v9Z" fill="#5c5b5c"/></g></svg>