<?xml version="1.0" encoding="UTF-8"?><svg id="a" xmlns="http://www.w3.org/2000/svg" width="16" height="16" viewBox="0 0 16 16"><path d="M5.0002,7.5002v2h1.6899c.1982-.7281.5625-1.4165,1.1123-2h-2.8022Z" fill="#58595b" stroke-width="0"/><path d="M16.0002,9.5002v-2h-1.3022c.5498.5835.9141,1.2719,1.1123,2h.1899Z" fill="#58595b" stroke-width="0"/><path d="M.9998,1.0002v11h2v1.5h4.395c-.5356-.7504-.8223-1.6169-.8687-2.5h-2.5264V2.0002h12.0005v-1H.9998ZM2.9998,11.0002h-1V2.0002h1v9Z" fill="#58595b" stroke-width="0"/><rect x="5.0002" y="3.0002" width="3" height="1" fill="#58595b" stroke-width="0"/><path d="M8.2449,13.755c.8301.8298,1.918,1.2448,3.0054,1.2448s2.1753-.4149,3.0054-1.2448c1.6597-1.6598,1.6597-4.3507,0-6.0104-.8301-.83-1.9175-1.2449-3.0054-1.2449s-2.1753.4149-3.0054,1.2449c-1.6597,1.6597-1.6597,4.3506,0,6.0104ZM9.2468,9.4142l.668-.6678,1.3354,1.3356,1.3354-1.3357.668.6678-1.3354,1.3357,1.3354,1.3357-.668.6678-1.3354-1.3357-1.3359,1.3356-.6675-.6678,1.3354-1.3356-1.3354-1.3356Z" fill="#eb2027" stroke-width="0"/></svg>