<?xml version="1.0" encoding="UTF-8"?><svg id="a" xmlns="http://www.w3.org/2000/svg" width="16" height="16" viewBox="0 0 16 16"><path d="M15.4294,13.509c-.1914.3552-.4214.6935-.71,1h1.2803v-1h-.5703Z" fill="#5c5b5c" stroke-width="0"/><path d="M7.9998,7.8287V2.5119c0-.2773.2256-.5029.5029-.5029h7.4971v-1h-7.4971c-.8286,0-1.5029.6738-1.5029,1.5029v6.7133c.2266-.4769.5186-.9305.9126-1.3246.0269-.0271.0601-.0457.0874-.0719Z" fill="#5c5b5c" stroke-width="0"/><rect x="2.4998" y="5.509" width=".5" height="1" fill="#5c5b5c" stroke-width="0"/><rect x="3.4998" y="5.509" width=".5" height="1" fill="#5c5b5c" stroke-width="0"/><rect x="2.491" y="3.509" width="2.5" height="1" fill="#5c5b5c" stroke-width="0"/><path d="M14.2766,8.2543c-.8301-.83-1.9175-1.2449-3.0054-1.2449s-2.1753.4149-3.0054,1.2449c-1.6597,1.6597-1.6597,4.3506,0,6.0104.8301.83,1.918,1.2449,3.0054,1.2449s2.1753-.4149,3.0054-1.2449c1.6597-1.6598,1.6597-4.3507,0-6.0104ZM13.2747,12.5951l-.668.6678-1.3354-1.3357-1.3354,1.3356-.668-.6678,1.3354-1.3356-1.3354-1.3356.668-.6678,1.3354,1.3356,1.3354-1.3356.668.6677-1.3354,1.3357,1.3354,1.3357Z" fill="#eb2027" stroke-width="0"/><path d="M.9998,12.509v2h5.5V1.009H.9998v11.5ZM5.4998,2.009v10.5H1.9998V2.009h3.5Z" fill="#5c5b5c" stroke-width="0"/></svg>